<svg width="40" height="41" viewBox="0 0 40 41" fill="none" xmlns="http://www.w3.org/2000/svg">
<path fill-rule="evenodd" clip-rule="evenodd" d="M19.998 12.6105C19.2103 12.6103 18.4303 12.7654 17.7025 13.0668C16.9747 13.3682 16.3135 13.81 15.7565 14.367C15.1995 14.9239 14.7577 15.5852 14.4563 16.313C14.1549 17.0408 13.9999 17.8208 14 18.6085C14 20.8265 16.288 23.0925 16.288 23.0925C16.678 23.4795 16.998 24.2045 16.998 24.7035C16.998 25.2025 17.448 25.6105 17.998 25.6105H21.998C22.548 25.6105 22.998 25.2025 22.998 24.7035C22.998 24.2045 23.318 23.4795 23.708 23.0925C23.708 23.0925 25.996 20.8265 25.996 18.6085C25.9961 17.8208 25.8411 17.0408 25.5397 16.313C25.2383 15.5852 24.7965 14.9239 24.2395 14.367C23.6825 13.81 23.0213 13.3682 22.2935 13.0668C21.5657 12.7654 20.7857 12.6103 19.998 12.6105ZM22.963 27.6105C22.963 27.0605 22.513 26.6105 21.963 26.6105H17.963C17.413 26.6105 16.963 27.0605 16.963 27.6105V27.6135C16.963 28.1635 17.413 28.6135 17.963 28.6135H21.963C22.513 28.6135 22.963 28.1635 22.963 27.6135V27.6105Z" fill="url(#paint0_linear_2_26495)"/>
<defs>
<linearGradient id="paint0_linear_2_26495" x1="19.998" y1="12.6105" x2="19.998" y2="28.6135" gradientUnits="userSpaceOnUse">
<stop stop-color="#FF6F47"/>
<stop offset="1" stop-color="#FE4810"/>
</linearGradient>
</defs>
</svg>
