<svg width="13" height="13" viewBox="0 0 13 13" fill="none" xmlns="http://www.w3.org/2000/svg">
<path fill-rule="evenodd" clip-rule="evenodd" d="M6.63312 11.6105C3.87162 11.6105 1.63312 9.37197 1.63312 6.61047C1.63312 3.84897 3.87162 1.61047 6.63312 1.61047C9.39462 1.61047 11.6331 3.84897 11.6331 6.61047C11.6331 9.37197 9.39462 11.6105 6.63312 11.6105ZM7.13312 4.61047C7.13312 4.88662 6.90926 5.11047 6.63312 5.11047C6.35698 5.11047 6.13312 4.88662 6.13312 4.61047C6.13312 4.33433 6.35698 4.11047 6.63312 4.11047C6.90926 4.11047 7.13312 4.33433 7.13312 4.61047ZM6.63312 5.61047C6.90926 5.61047 7.13312 5.83433 7.13312 6.11047V8.61047C7.13312 8.88662 6.90926 9.11047 6.63312 9.11047C6.35698 9.11047 6.13312 8.88662 6.13312 8.61047V6.11047C6.13312 5.83433 6.35698 5.61047 6.63312 5.61047Z" fill="#172B4D"/>
</svg>
