<svg width="16" height="17" viewBox="0 0 16 17" fill="none" xmlns="http://www.w3.org/2000/svg">
<path fill-rule="evenodd" clip-rule="evenodd" d="M6.75887 5.0553L5.84469 7.32572L3.52804 8.22036C3.45885 8.24726 3.3995 8.29389 3.35769 8.35422C3.31587 8.41455 3.29352 8.48579 3.29352 8.55871C3.29352 8.63163 3.31587 8.70287 3.35769 8.7632C3.3995 8.82353 3.45885 8.87016 3.52804 8.89706L5.84469 9.79216L6.75887 12.0617C6.78632 12.1294 6.83393 12.1876 6.89551 12.2285C6.95709 12.2695 7.02981 12.2914 7.10424 12.2914C7.17868 12.2914 7.2514 12.2695 7.31298 12.2285C7.37456 12.1876 7.42217 12.1294 7.44962 12.0617H7.44915L8.36285 9.79216L10.68 8.89659C10.749 8.86952 10.8081 8.82281 10.8498 8.76251C10.8914 8.7022 10.9137 8.63106 10.9137 8.55824C10.9137 8.48543 10.8914 8.41428 10.8498 8.35398C10.8081 8.29367 10.749 8.24697 10.68 8.2199L8.36285 7.32572L7.44915 5.0553C7.43045 5.00892 7.40219 4.96683 7.36612 4.93166C7.33005 4.89649 7.28696 4.86899 7.23954 4.85089C7.19425 4.83333 7.14587 4.82469 7.09717 4.82547C7.04847 4.82624 7.0004 4.83641 6.95572 4.85539C6.91103 4.87438 6.8706 4.9018 6.83674 4.9361C6.80289 4.9704 6.77626 5.01091 6.75839 5.0553H6.75887ZM10.7114 4.10792L10.3575 4.98809L9.45996 5.33484C9.41074 5.35438 9.36859 5.38787 9.33891 5.43102C9.30923 5.47417 9.29338 5.52502 9.29338 5.57705C9.29338 5.62908 9.30923 5.67993 9.33891 5.72308C9.36859 5.76623 9.41074 5.79972 9.45996 5.81926L10.3575 6.16601L10.7114 7.04618C10.731 7.09477 10.7651 7.13647 10.8091 7.16585C10.8532 7.19523 10.9053 7.21094 10.9587 7.21094C11.012 7.21094 11.0641 7.19523 11.1082 7.16585C11.1523 7.13647 11.1863 7.09477 11.2059 7.04618L11.5608 6.16601L12.4578 5.81926C12.5076 5.80026 12.5504 5.76697 12.5806 5.72375C12.6107 5.68053 12.6269 5.6294 12.6269 5.57705C12.6269 5.5247 12.6107 5.47357 12.5806 5.43035C12.5504 5.38714 12.5076 5.35385 12.4578 5.33484L11.5608 4.98809L11.2059 4.10839C11.1927 4.07515 11.1726 4.04496 11.1468 4.01973C11.1211 3.99451 11.0902 3.9748 11.0563 3.96185C10.9907 3.93698 10.9177 3.93842 10.8532 3.96584C10.7887 3.99326 10.7377 4.04447 10.7114 4.10839V4.10792ZM10.376 10.1762L10.0216 11.055L9.12458 11.4022C9.09049 11.4151 9.0595 11.4348 9.03359 11.46C9.00767 11.4852 8.9874 11.5155 8.97405 11.5488C8.94846 11.6131 8.94993 11.6848 8.97814 11.7481C9.00635 11.8115 9.059 11.8613 9.12458 11.8867L10.0216 12.2334L10.376 13.1126C10.4032 13.1798 10.457 13.233 10.5256 13.2596C10.5913 13.2847 10.6644 13.2834 10.729 13.2558C10.7936 13.2283 10.8445 13.1768 10.8705 13.1126L11.225 12.2334L12.122 11.8867C12.1718 11.8676 12.2146 11.8344 12.2447 11.7911C12.2749 11.7479 12.291 11.6968 12.291 11.6444C12.291 11.5921 12.2749 11.541 12.2447 11.4977C12.2146 11.4545 12.1718 11.4212 12.122 11.4022L11.225 11.055L10.8705 10.1762C10.8574 10.1428 10.8373 10.1124 10.8114 10.087C10.7856 10.0616 10.7546 10.0417 10.7205 10.0288C10.6548 10.0038 10.5818 10.0054 10.5172 10.033C10.4527 10.0606 10.402 10.1121 10.376 10.1762Z" fill="white"/>
</svg>
